<svg xmlns="http://www.w3.org/2000/svg" viewBox="0 0 595.28 841.89"><title>glu</title><path d="M525.94,424.91c-11.51,53.29-52.47,77.84-104.6,78.32-14.89.14-14.93,23.29,0,23.15,62.13-.58,113.29-32.15,126.93-95.32,3.14-14.53-19.18-20.74-22.33-6.16h0Z" style="fill:#1b1c1c"/><ellipse cx="540.99" cy="411.1" rx="26.71" ry="12.14" transform="translate(-27.37 783.46) rotate(-70.46)" style="fill:#1b1c1c"/><ellipse cx="553.54" cy="419.31" rx="26.71" ry="12.14" transform="translate(-140.84 411.56) rotate(-36.5)" style="fill:#1b1c1c"/><ellipse cx="526.08" cy="409.56" rx="12.14" ry="26.71" transform="translate(-85.41 143.89) rotate(-14.42)" style="fill:#1b1c1c"/><path d="M63.92,424.91c11.51,53.29,52.47,77.84,104.6,78.32,14.89,0.14,14.93,23.29,0,23.15-62.13-.58-113.29-32.15-126.93-95.32-3.14-14.53,19.18-20.74,22.33-6.16h0Z" style="fill:#1b1c1c"/><ellipse cx="48.87" cy="411.1" rx="12.14" ry="26.71" transform="translate(-134.67 40.02) rotate(-19.54)" style="fill:#1b1c1c"/><ellipse cx="36.32" cy="419.31" rx="12.14" ry="26.71" transform="translate(-322.33 199.06) rotate(-53.5)" style="fill:#1b1c1c"/><ellipse cx="63.78" cy="409.56" rx="26.71" ry="12.14" transform="translate(-348.76 369.35) rotate(-75.58)" style="fill:#1b1c1c"/><rect x="187.86" y="243.53" width="17.63" height="141.9" rx="8.82" ry="8.82" transform="translate(-45.06 33.16) rotate(-8.65)" style="fill:#f286a8"/><circle cx="175.14" cy="232.8" r="56.72" style="fill:#f2ba26"/><rect x="384.9" y="243.53" width="17.63" height="141.9" rx="8.82" ry="8.82" transform="translate(735.65 684.59) rotate(-171.35)" style="fill:#f2ba26"/><path d="M419.37,635.23a153.65,153.65,0,0,1-30.28,69.29h0a37.57,37.57,0,0,1-19.78,12.81,33.3,33.3,0,0,1-42.13-32.17h0a11.36,11.36,0,0,0-11.34-11.36l-44.44-.07A11.36,11.36,0,0,0,260,685.09v0.13c0,30.83-38.49,45.35-58.5,21.89l-0.45-.54-0.87-1.07a153.65,153.65,0,0,1-32.7-72.33l-23.06-140c-15.17-92.07,55.86-175.76,149.17-175.76h0c93.31,0,164.34,83.69,149.17,175.76Z" style="fill:#f7dc55"/><circle cx="182.54" cy="216.22" r="40.15" style="fill:#fff"/><circle cx="182.54" cy="212.95" r="25.4" style="fill:#1b1c1c"/><circle cx="170.25" cy="193.28" r="6.55" style="fill:#fff"/><circle cx="405.3" cy="238.35" r="56.72" style="fill:#f286a8"/><circle cx="397.89" cy="221.78" r="40.15" style="fill:#fff"/><circle cx="397.89" cy="218.5" r="25.4" style="fill:#1b1c1c"/><circle cx="410.18" cy="198.84" r="6.55" style="fill:#fff"/><path d="M262.55,517.48a95.57,95.57,0,0,0-21.75,8.44L250,540.71Z" style="fill:#fff"/><path d="M329.25,518.75a119.07,119.07,0,0,0-35.49-5l-1.32,0,11.55,27Z" style="fill:#fff"/><circle cx="207.6" cy="373.71" r="7.14" style="fill:#f2ba26"/><circle cx="240.67" cy="348.26" r="3.72" style="fill:#f2ba26"/><circle cx="249.88" cy="386.32" r="5.48" style="fill:#f2ba26"/><circle cx="280.24" cy="348.47" r="3.93" style="fill:#f2ba26"/><circle cx="266.16" cy="366.61" r="3.62" style="fill:#f2ba26"/><circle cx="226.08" cy="405.01" r="3.39" style="fill:#f2ba26"/><circle cx="303.13" cy="332.59" r="1.79" style="fill:#f2ba26"/><circle cx="289.56" cy="364.8" r="1.81" style="fill:#f2ba26"/><circle cx="234.4" cy="369.12" r="2.55" style="fill:#f2ba26"/><circle cx="191.12" cy="394.62" r="2.81" style="fill:#f2ba26"/><circle cx="282.02" cy="392.05" r="5.72" style="fill:#f2ba26"/><circle cx="307.88" cy="355.37" r="2.96" style="fill:#f2ba26"/><circle cx="303.13" cy="378.38" r="1.79" style="fill:#f2ba26"/><circle cx="326.52" cy="344.54" r="3.72" style="fill:#f2ba26"/><circle cx="324.66" cy="370.98" r="1.86" style="fill:#f2ba26"/><circle cx="317.8" cy="389.18" r="2.86" style="fill:#f2ba26"/><circle cx="347.23" cy="355.73" r="7.26" style="fill:#f2ba26"/><circle cx="340.87" cy="377.48" r="0.89" style="fill:#f2ba26"/><circle cx="377.38" cy="369.69" r="4.89" style="fill:#f2ba26"/><circle cx="344.48" cy="391.9" r="2.72" style="fill:#f2ba26"/><circle cx="358.32" cy="381.31" r="3.83" style="fill:#f2ba26"/><circle cx="369.51" cy="394.79" r="2.98" style="fill:#f2ba26"/><circle cx="386.64" cy="388.21" r="3.59" style="fill:#f2ba26"/><circle cx="384.84" cy="403.42" r="1.8" style="fill:#f2ba26"/><path d="M208.88,508.43c-0.69-1.68,7.34,62.22,86,64.59,78.71-2.37,86.74-66.27,86-64.59" style="fill:#1b1c1c"/><path d="M381,508.43a368.6,368.6,0,0,1-172.1,0" style="fill:#fff"/><path d="M349.94,556.63c-13.77-7.43-33.29-12.1-55-12.1s-41.24,4.67-55,12.1c12.69,8.89,30.39,15.66,55,16.4C319.55,572.28,337.26,565.52,349.94,556.63Z" style="fill:#f286a8"/></svg>